<?xml version="1.0" encoding="utf-8"?>
<!-- Generator: Adobe Illustrator 27.5.0, SVG Export Plug-In . SVG Version: 6.00 Build 0)  -->
<svg version="1.1" xmlns="http://www.w3.org/2000/svg" xmlns:xlink="http://www.w3.org/1999/xlink" x="0px" y="0px"
	 viewBox="0 0 500 500" style="enable-background:new 0 0 500 500;" xml:space="preserve">
<g id="BACKGROUND">
	<rect style="fill:#FFF6EE;" width="500" height="500"/>
</g>
<g id="OBJECTS">
	<circle style="fill:#FCE1D0;" cx="250" cy="250" r="212.083"/>
	<g>
		<path style="fill:#FFF6EE;" d="M433.999,228.499c-7.86-23.94-30.16-40.53-55.63-39.6c-5.34,0.2-10.55,1.24-15.5,2.99
			c-0.23-2.7-0.49-4.9-0.71-6.56c-0.34-2.47-0.6-3.77-0.6-3.77c0,3.88-6.03,7.51-16.53,10.62c-20.68,6.12-58.69,10.23-102.16,10.23
			c-43.47,0-81.48-4.11-102.16-10.23c-10.5-3.11-16.53-6.74-16.53-10.62c0,0-1.54,7.68-1.93,21.19
			c-0.59,19.72,1.27,51.86,13.88,90.7c0.96,2.95,1.92,5.83,2.89,8.64c15.49,45.02,32.26,73.6,39.6,84.98
			c2.84,4.41,7.02,7.77,11.93,9.59c8.58,3.19,24.75,7.12,52.32,7.12c27.57,0,43.75-3.93,52.32-7.12c4.91-1.82,9.09-5.18,11.93-9.59
			c2.39-3.71,5.78-9.23,9.8-16.56c43.31-4.15,82.92-29.56,104.86-67.69C434.4,280.889,442.15,253.329,433.999,228.499z
			 M333.249,340.659c6.51-14.72,12.48-30.43,17.79-46.75c8.02-24.71,12.66-49.48,13.79-73.64c3.66-2.59,7.69-4.21,11.69-4.69
			c7.49-0.91,14.06,0.64,20.69,4.87c1.72,1.09,4.98,4.08,6.59,6.29c2.37,3.25,4.05,6.71,5.29,10.9c1.25,4.21,1.8,8.51,1.8,12.81
			c0,14.96-6.61,29.84-12.96,40.72c-8.94,15.27-21.69,28.25-36.88,37.53C352.429,333.969,343.09,337.979,333.249,340.659z"/>
		<path style="fill:#F9EADE;" d="M433.999,228.499c-7.86-23.94-30.16-40.53-55.63-39.6c-5.34,0.2-10.55,1.24-15.5,2.99
			c-0.23-2.7-0.49-4.9-0.71-6.56c-16.56,32.08-36.68,62.24-63.78,86.5c-32.47,29.06-76.82,48.69-120.79,42.43
			c-13.78-1.97-26.78-5.96-38.57-12.17c15.49,45.02,32.26,73.6,39.6,84.98c2.84,4.41,7.02,7.77,11.93,9.59
			c8.58,3.19,24.75,7.12,52.32,7.12c27.57,0,43.75-3.93,52.32-7.12c4.91-1.82,9.09-5.18,11.93-9.59c2.39-3.71,5.78-9.23,9.8-16.56
			c43.31-4.15,82.92-29.56,104.86-67.69C434.4,280.889,442.15,253.329,433.999,228.499z M399.22,291.929
			c-9,15.39-22.08,28.7-37.39,38.05c-9.77,5.97-20.29,10.26-31.21,12.9c6.17-13.7,12.74-30.2,18.99-49.43
			c9.51-29.28,12.91-54.75,13.75-73.97c3.81-2.83,8.3-4.83,12.98-5.39c8.03-0.97,14.94,0.8,21.67,5.09c1.81,1.15,5.23,4.25,7,6.68
			c2.6,3.56,4.29,7.21,5.52,11.35C416.03,255.739,408.6,275.889,399.22,291.929z"/>
		<path style="fill:#492E27;" d="M242.869,405.279c-27.64,0-43.991-3.923-52.842-7.214c-5.249-1.945-9.631-5.467-12.669-10.184
			c-6.706-10.397-24.006-39.524-39.757-85.304c-0.926-2.683-1.874-5.517-2.898-8.665c-12.625-38.887-14.556-71.063-13.952-91.208
			c0.389-13.481,1.895-21.122,1.958-21.44c0.151-0.755,0.831-1.294,1.619-1.197c0.767,0.076,1.352,0.721,1.352,1.492
			c0,1.384,1.506,5.05,15.456,9.182c21.192,6.271,60.174,10.168,101.733,10.168c41.561,0,80.542-3.896,101.734-10.168
			c13.95-4.132,15.456-7.798,15.456-9.182c0-0.771,0.585-1.417,1.353-1.493c0.775-0.075,1.468,0.443,1.618,1.199
			c0.011,0.055,0.272,1.373,0.615,3.859c0.204,1.539,0.387,3.127,0.545,4.741c4.628-1.459,9.37-2.287,14.122-2.466
			c25.499-0.911,48.953,15.78,57.112,40.632l0,0c9.836,29.966-3.513,60.188-12.346,75.535
			c-22.088,38.389-61.382,63.897-105.226,68.357c-3.191,5.785-6.376,11.15-9.474,15.957c-3.037,4.717-7.418,8.238-12.669,10.184
			C286.872,401.356,270.527,405.279,242.869,405.279z M124.971,186.322c-0.457,3.566-1.011,9.173-1.222,16.471
			c-0.596,19.909,1.315,51.717,13.808,90.193c1.019,3.13,1.961,5.947,2.881,8.614c15.646,45.471,32.795,74.35,39.442,84.655
			c2.685,4.168,6.554,7.278,11.191,8.997c8.621,3.206,24.604,7.026,51.798,7.026c27.212,0,43.188-3.82,51.797-7.025
			c4.64-1.72,8.509-4.83,11.192-8.997c3.183-4.938,6.462-10.479,9.746-16.469c0.239-0.436,0.678-0.724,1.172-0.771
			c43.197-4.14,81.965-29.166,103.703-66.945c8.583-14.915,21.567-44.244,12.096-73.104c-7.746-23.59-30.02-39.462-54.151-38.569
			c-5.073,0.19-10.14,1.168-15.055,2.905c-0.438,0.154-0.923,0.098-1.313-0.153c-0.391-0.252-0.642-0.671-0.681-1.134
			c-0.166-1.942-0.367-3.855-0.601-5.7c-2.688,2.65-7.767,5.064-15.319,7.302c-21.449,6.348-60.758,10.291-102.586,10.291
			c-41.827,0-81.136-3.943-102.585-10.291C132.736,191.381,127.66,188.969,124.971,186.322z"/>
		<g>
			<path style="fill:#FFF6EE;" d="M410.53,237.209c-1.23-4.14-2.92-7.79-5.52-11.35c-1.77-2.43-5.19-5.53-7-6.68
				c-6.73-4.29-13.64-6.06-21.67-5.09c-4.68,0.56-9.17,2.56-12.98,5.39c-0.84,19.22-4.24,44.69-13.75,73.97
				c-6.25,19.23-12.82,35.73-18.99,49.43c10.92-2.64,21.44-6.93,31.21-12.9c15.31-9.35,28.39-22.66,37.39-38.05
				C408.6,275.889,416.03,255.739,410.53,237.209z M397.929,291.169c-8.94,15.27-21.69,28.25-36.88,37.53
				c-8.62,5.27-17.96,9.28-27.8,11.96c6.51-14.72,12.48-30.43,17.79-46.75c8.02-24.71,12.66-49.48,13.79-73.64
				c3.66-2.59,7.69-4.21,11.69-4.69c7.49-0.91,14.06,0.64,20.69,4.87c1.72,1.09,4.98,4.08,6.59,6.29c2.37,3.25,4.05,6.71,5.29,10.9
				c1.25,4.21,1.8,8.51,1.8,12.81C410.889,265.409,404.28,280.289,397.929,291.169z"/>
			<path style="fill:#492E27;" d="M411.97,236.779c-1.35-4.52-3.17-8.28-5.75-11.8c-1.88-2.59-5.41-5.8-7.4-7.06
				c-7.25-4.62-14.45-6.31-22.66-5.32c-4.72,0.57-9.46,2.53-13.69,5.68c-0.37,0.27-0.59,0.68-0.61,1.13
				c-1.05,24.12-5.65,48.88-13.68,73.58c-5.61,17.26-11.98,33.84-18.93,49.27c-0.23,0.53-0.15,1.14,0.22,1.58
				c0.28,0.35,0.71,0.54,1.15,0.54c0.12,0,0.23-0.01,0.35-0.04c11.24-2.72,21.89-7.12,31.64-13.08
				c7.81-4.77,14.99-10.49,21.37-16.98c6.37-6.48,11.94-13.74,16.54-21.59C412.689,271.879,416.65,252.539,411.97,236.779z
				 M397.929,291.169c-8.94,15.27-21.69,28.25-36.88,37.53c-8.62,5.27-17.96,9.28-27.8,11.96c6.51-14.72,12.48-30.43,17.79-46.75
				c8.02-24.71,12.66-49.48,13.79-73.64c3.66-2.59,7.69-4.21,11.69-4.69c7.49-0.91,14.06,0.64,20.69,4.87
				c1.72,1.09,4.98,4.08,6.59,6.29c2.37,3.25,4.05,6.71,5.29,10.9c1.25,4.21,1.8,8.51,1.8,12.81
				C410.889,265.409,404.28,280.289,397.929,291.169z"/>
		</g>
		<g>
			<g>
				<path style="fill:#FFF6EE;" d="M361.556,181.561c0,3.88-6.03,7.51-16.53,10.62c-20.68-6.13-58.69-10.23-102.16-10.23
					c-43.47,0-81.48,4.1-102.16,10.23c-10.5-3.11-16.53-6.74-16.53-10.62c0-11.52,53.14-20.85,118.69-20.85
					S361.556,170.041,361.556,181.561z"/>
			</g>
			<g>
				<path style="fill:#492E27;" d="M345.025,193.681c-0.144,0-0.287-0.021-0.427-0.062c-21.157-6.271-60.14-10.168-101.733-10.168
					c-41.593,0-80.575,3.896-101.732,10.168c-0.279,0.082-0.575,0.082-0.853,0c-11.846-3.51-17.604-7.453-17.604-12.059
					c0-14.517,61.925-22.35,120.189-22.35c58.266,0,120.19,7.833,120.19,22.35c0,4.605-5.759,8.549-17.604,12.059
					C345.312,193.661,345.169,193.681,345.025,193.681z M242.865,180.452c42.219,0,80.344,3.797,102.157,10.165
					c13.558-4.081,15.033-7.686,15.033-9.056c0-3.567-8.807-8.926-33.523-13.268c-22.331-3.922-52.045-6.082-83.667-6.082
					c-31.621,0-61.335,2.16-83.666,6.082c-24.717,4.342-33.523,9.7-33.523,13.268c0,1.37,1.476,4.975,15.033,9.056
					C162.522,184.248,200.646,180.452,242.865,180.452z"/>
			</g>
		</g>
		<g>
			<g>
				<path style="fill:#492E27;" d="M345.026,192.181c-20.68,6.12-58.69,10.23-102.16,10.23c-43.47,0-81.48-4.11-102.16-10.23
					c20.68-6.13,58.69-10.23,102.16-10.23C286.336,181.951,324.346,186.051,345.026,192.181z"/>
			</g>
			<g>
				<path style="fill:#492E27;" d="M242.865,203.912c-41.825,0-81.134-3.943-102.585-10.292c-0.637-0.188-1.074-0.773-1.074-1.438
					c0-0.664,0.437-1.249,1.073-1.438c21.74-6.443,60.09-10.291,102.586-10.291c42.497,0,80.847,3.848,102.587,10.291
					c0.637,0.189,1.073,0.774,1.073,1.438c0,0.665-0.438,1.25-1.074,1.438C324,199.968,284.691,203.912,242.865,203.912z
					 M146.465,192.18c22.02,5.425,58.117,8.731,96.4,8.731s74.382-3.307,96.401-8.731c-21.991-5.423-58.088-8.729-96.401-8.729
					S168.456,186.757,146.465,192.18z"/>
			</g>
		</g>
		<g>
			<g>
				<path style="fill:#492E27;" d="M359.926,217.579c-0.629,0-1.214-0.397-1.423-1.026c-2.162-6.494-1.907-13.85,0.697-20.18
					c0.314-0.767,1.189-1.135,1.957-0.816c0.767,0.314,1.132,1.191,0.816,1.957c-2.334,5.676-2.563,12.27-0.625,18.092
					c0.262,0.786-0.163,1.636-0.949,1.896C360.242,217.555,360.083,217.579,359.926,217.579z"/>
			</g>
		</g>
		<g>
			<g>
				<path style="fill:#492E27;" d="M313.615,367.987c-0.713,0-1.345-0.51-1.475-1.236c-0.839-4.699,0.046-9.767,2.428-13.903
					s6.319-7.447,10.804-9.081c0.779-0.28,1.64,0.117,1.923,0.896c0.284,0.778-0.117,1.64-0.896,1.923
					c-3.831,1.396-7.196,4.225-9.231,7.759c-2.034,3.535-2.79,7.865-2.074,11.88c0.146,0.815-0.397,1.595-1.213,1.74
					C313.792,367.979,313.703,367.987,313.615,367.987z"/>
			</g>
		</g>
		<g>
			<g>
				<path style="fill:#492E27;" d="M409.013,310.841c-0.26,0-0.521-0.067-0.761-0.208c-0.714-0.421-0.951-1.341-0.53-2.055
					c6.751-11.441,13.731-23.273,17.714-36.12c4.375-14.115,4.266-27.903-0.31-38.826c-0.319-0.764,0.04-1.643,0.805-1.963
					c0.764-0.319,1.643,0.041,1.963,0.805c4.847,11.57,4.991,26.086,0.407,40.873c-4.086,13.181-11.157,25.166-17.995,36.756
					C410.025,310.578,409.525,310.841,409.013,310.841z"/>
			</g>
		</g>
		<g>
			<g>
				<path style="fill:#492E27;" d="M386.521,335.454c-0.45,0-0.896-0.202-1.191-0.587c-0.504-0.657-0.38-1.6,0.277-2.104
					c6.37-4.885,11.995-10.652,16.718-17.14c0.488-0.671,1.426-0.815,2.096-0.33c0.67,0.487,0.817,1.426,0.33,2.096
					c-4.893,6.721-10.719,12.694-17.317,17.755C387.161,335.354,386.84,335.454,386.521,335.454z"/>
			</g>
		</g>
	</g>
	<g>
		<g>
			<g>
				<path style="fill:#684741;" d="M183.104,303.129c4.316-6.274,6.62-13.655,9.199-20.884
					c-20.791-10.377-51.838,7.372-64.899,31.116c-12.098,21.993-8.083,47.89,8.484,60.95c-0.631-6.896,0.111-13.735,3.14-20.101
					C148.36,333.094,169.39,321.836,183.104,303.129z"/>
			</g>
			<g>
				<path style="fill:#492E27;" d="M135.887,375.811c-0.33,0-0.658-0.109-0.929-0.322c-17.275-13.617-21.089-40.638-8.87-62.851
					c6.602-12.002,17.604-22.561,30.185-28.968c13.482-6.867,26.518-7.85,36.699-2.768c0.679,0.339,0.998,1.131,0.743,1.846
					c-0.31,0.868-0.615,1.737-0.921,2.607c-2.234,6.361-4.546,12.939-8.456,18.623c-0.008,0.012-0.017,0.024-0.025,0.036
					c-5.667,7.73-12.595,14.234-19.293,20.524c-9.88,9.276-19.212,18.038-24.621,30.276c-2.709,5.695-3.69,12.015-3.018,19.358
					c0.055,0.597-0.252,1.169-0.778,1.455C136.379,375.752,136.133,375.811,135.887,375.811z M178.762,280.694
					c-18.633,0-40.106,15.32-50.045,33.39c-10.866,19.755-8.384,43.463,5.475,56.766c-0.123-6.362,1.044-12.163,3.48-17.284
					c5.638-12.757,15.63-22.14,25.294-31.213c6.595-6.191,13.413-12.594,18.914-20.092c3.676-5.351,5.917-11.729,8.084-17.898
					c0.156-0.445,0.313-0.891,0.47-1.336C186.78,281.428,182.839,280.694,178.762,280.694z M183.103,303.129h0.01H183.103z"/>
			</g>
		</g>
		<g>
			<g>
				<path style="fill:#684741;" d="M202.668,354.762c13.264-24.113,11.388-60.601-9.396-72.034c-0.318-0.175-0.647-0.322-0.97-0.483
					c-2.579,7.23-4.883,14.61-9.199,20.884c-13.714,18.707-34.743,29.965-44.076,51.081c-3.029,6.366-3.771,13.205-3.14,20.101
					c1.597,1.259,3.305,2.406,5.132,3.411C161.803,389.155,189.404,378.875,202.668,354.762z"/>
			</g>
			<g>
				<path style="fill:#492E27;" d="M159.378,383.875c-6.594,0-13.11-1.554-19.081-4.838c-1.843-1.015-3.639-2.208-5.338-3.548
					c-0.323-0.255-0.527-0.631-0.565-1.041c-0.713-7.785,0.391-14.812,3.279-20.883c5.638-12.757,15.63-22.14,25.294-31.213
					c6.6-6.196,13.424-12.604,18.927-20.11c3.658-5.317,5.901-11.704,8.071-17.88c0.307-0.874,0.614-1.749,0.925-2.621
					c0.145-0.404,0.455-0.728,0.853-0.888s0.845-0.143,1.229,0.049l0.307,0.149c0.24,0.116,0.48,0.232,0.716,0.362
					c21.935,12.065,23.38,49.725,9.988,74.07C194.134,373.39,176.502,383.875,159.378,383.875z M137.326,373.528
					c1.418,1.078,2.9,2.046,4.417,2.88c20.024,11.018,46.768,0.98,59.61-22.369c6.34-11.525,9.29-26.438,7.893-39.895
					c-1.454-14-7.165-24.538-16.107-29.768c-0.114,0.327-0.229,0.653-0.344,0.979c-2.234,6.361-4.546,12.939-8.456,18.623
					c-5.692,7.767-12.62,14.271-19.318,20.561c-9.88,9.276-19.212,18.038-24.621,30.276
					C137.769,360.344,136.767,366.46,137.326,373.528z"/>
			</g>
		</g>
		<g>
			<g>
				<path style="fill:#492E27;" d="M146.68,381.749c-0.787,0-1.448-0.613-1.496-1.409c-0.05-0.827,0.58-1.538,1.406-1.588
					c17.272-1.045,32.578-10.265,45.492-27.402c11.266-14.95,15.791-36.989,11.528-56.146c-0.181-0.809,0.329-1.61,1.138-1.79
					c0.813-0.183,1.61,0.33,1.79,1.138c4.445,19.979-0.288,42.982-12.06,58.604c-13.467,17.872-29.519,27.492-47.707,28.592
					C146.741,381.748,146.711,381.749,146.68,381.749z"/>
			</g>
		</g>
		<g>
			<g>
				<path style="fill:#492E27;" d="M127.365,341.516c-0.061,0-0.122-0.004-0.184-0.011c-0.822-0.101-1.408-0.849-1.308-1.671
					c1.467-12.003,6.487-23.769,14.139-33.131c7.65-9.362,18.181-16.627,29.65-20.456c0.787-0.263,1.636,0.162,1.897,0.948
					c0.263,0.785-0.162,1.635-0.948,1.897c-10.938,3.651-20.98,10.58-28.277,19.509c-7.296,8.929-12.084,20.149-13.482,31.596
					C128.76,340.958,128.112,341.516,127.365,341.516z"/>
			</g>
		</g>
		<g>
			<g>
				<path style="fill:#492E27;" d="M130.302,360.52c-0.608,0-1.181-0.372-1.405-0.976c-1.578-4.229-2.584-8.656-2.988-13.157
					c-0.074-0.824,0.535-1.554,1.36-1.628c0.804-0.079,1.554,0.534,1.628,1.36c0.38,4.233,1.326,8.397,2.811,12.376
					c0.29,0.776-0.104,1.64-0.881,1.93C130.653,360.489,130.476,360.52,130.302,360.52z"/>
			</g>
		</g>
	</g>
	<g>
		<g>
			<g>
				<g>
					<path style="fill:#684741;" d="M238.138,408.442c1.707,5.975,5.604,10.306,10.595,13.314c1.344-0.264,2.672-0.632,3.976-1.114
						h0.011c1.384-0.51,2.734-1.138,4.05-1.909c1.305-0.759,2.531-1.612,3.667-2.561c11.846-9.839,14.715-29.352,6.075-45.925
						c-9.204-17.611-30.854-30.83-45.704-23.781C243.007,356.178,231.705,388.222,238.138,408.442z"/>
				</g>
				<g>
					<path style="fill:#492E27;" d="M248.733,423.488c-0.313,0-0.622-0.085-0.894-0.249c-5.823-3.508-9.646-8.318-11.359-14.296
						c-2.298-7.241-2.403-15.919-2.505-24.312c-0.19-15.776-0.371-30.677-13.861-36.578c-0.622-0.271-1.027-0.882-1.038-1.561
						c-0.01-0.679,0.377-1.301,0.989-1.592c16.125-7.65,38.631,6.648,47.983,24.544c8.848,16.972,6.051,37.633-6.504,48.061
						c-1.196,0.998-2.511,1.916-3.904,2.726c-1.359,0.796-2.814,1.481-4.321,2.036c-0.036,0.014-0.072,0.026-0.109,0.037
						c-1.334,0.486-2.728,0.873-4.144,1.151C248.956,423.478,248.844,423.488,248.733,423.488z M225.095,346.792
						c11.98,7.687,12.165,22.973,12.344,37.798c0.1,8.148,0.201,16.574,2.35,23.327c0.006,0.017,0.011,0.033,0.016,0.05
						c1.406,4.923,4.517,8.941,9.251,11.951c1.044-0.234,2.068-0.536,3.055-0.9c0.034-0.013,0.069-0.024,0.105-0.035
						c1.282-0.479,2.52-1.064,3.68-1.744c1.23-0.715,2.384-1.52,3.434-2.396c11.331-9.411,13.758-28.237,5.648-43.794
						C257.211,356.187,239.001,343.513,225.095,346.792z"/>
				</g>
			</g>
			<g>
				<g>
					<path style="fill:#684741;" d="M238.138,408.442c-6.434-20.22,4.868-52.265-17.33-61.976c-0.234,0.111-0.471,0.212-0.702,0.333
						c-0.236,0.13-0.461,0.237-0.698,0.367c-3.589,2.086-6.39,5.263-8.437,9.152c-6.435,12.21-5.467,31.344,1.721,45.119
						c7.848,15.043,22.722,22.934,36.04,20.318C243.743,418.749,239.846,414.418,238.138,408.442z"/>
				</g>
				<g>
					<path style="fill:#492E27;" d="M243.636,423.98c-12.691,0-25.492-8.353-32.479-21.741c-7.595-14.554-8.317-34.206-1.717-46.728
						c2.29-4.352,5.352-7.663,9.099-9.842c0.169-0.094,0.298-0.16,0.427-0.227l0.308-0.162c0.207-0.108,0.388-0.192,0.569-0.276
						l0.22-0.102c0.455-0.216,0.979-0.225,1.44-0.023c15.538,6.798,15.741,23.529,15.938,39.71c0.099,8.148,0.2,16.574,2.349,23.327
						c0.006,0.017,0.011,0.033,0.016,0.05c1.462,5.119,4.767,9.259,9.822,12.306c0.614,0.369,0.937,1.078,0.813,1.783
						c-0.124,0.706-0.67,1.262-1.372,1.4C247.271,423.809,245.453,423.98,243.636,423.98z M220.827,348.38
						c-0.085,0.046-0.181,0.095-0.275,0.144l-0.308,0.162c-3.14,1.826-5.755,4.673-7.738,8.44
						c-6.012,11.404-5.271,30.109,1.724,43.51c6.383,12.235,17.972,19.882,29.383,19.882c0.137,0,0.273-0.001,0.41-0.003
						c-3.706-3.14-6.236-7.017-7.542-11.571c-2.298-7.241-2.403-15.919-2.505-24.312C233.788,369.139,233.61,354.49,220.827,348.38z
						"/>
				</g>
			</g>
		</g>
		<g>
			<g>
				<path style="fill:#492E27;" d="M256.579,412.434c-0.365,0-0.733-0.115-1.047-0.353c-0.762-0.579-0.91-1.666-0.332-2.428
					c5.216-6.867,7.578-15.711,6.481-24.263c-1.098-8.554-5.615-16.516-12.395-21.844c-0.752-0.592-0.883-1.681-0.292-2.433
					c0.592-0.752,1.682-0.882,2.433-0.292c7.488,5.886,12.479,14.68,13.689,24.127c1.212,9.446-1.396,19.215-7.157,26.8
					C257.619,412.197,257.101,412.434,256.579,412.434z"/>
			</g>
		</g>
	</g>
	<g>
		<g>
			<g>
				<path style="fill:#492E27;" d="M242.108,154.474c-0.641,0-1.233-0.412-1.433-1.056c-2.074-6.686-0.522-14.682,4.256-21.937
					c3.633-5.517,8.55-10.008,13.305-14.351c0.619-0.566,1.238-1.131,1.854-1.698c4.858-4.475,10.292-9.794,13.289-16.307
					c2.474-5.375,3.633-13.273-0.531-19.32c-0.47-0.682-0.298-1.616,0.385-2.086c0.682-0.468,1.616-0.298,2.086,0.385
					c4.081,5.925,4.382,14.46,0.785,22.275c-3.228,7.017-8.909,12.588-13.98,17.259c-0.619,0.569-1.241,1.138-1.863,1.706
					c-4.619,4.22-9.396,8.582-12.822,13.786c-4.283,6.502-5.703,13.572-3.896,19.397c0.245,0.791-0.197,1.632-0.988,1.877
					C242.405,154.452,242.255,154.474,242.108,154.474z"/>
			</g>
		</g>
		<g>
			<g>
				<path style="fill:#492E27;" d="M211.925,154.474c-0.641,0-1.233-0.412-1.433-1.056c-2.074-6.686-0.522-14.682,4.256-21.937
					c3.633-5.517,8.55-10.008,13.305-14.351c0.619-0.566,1.238-1.131,1.854-1.698c4.858-4.475,10.292-9.795,13.289-16.307
					c2.474-5.375,3.633-13.273-0.531-19.32c-0.47-0.682-0.298-1.616,0.385-2.086c0.682-0.468,1.616-0.298,2.086,0.385
					c4.081,5.925,4.382,14.46,0.785,22.275c-3.229,7.015-8.909,12.587-13.98,17.259c-0.619,0.57-1.241,1.138-1.863,1.707
					c-4.619,4.22-9.396,8.582-12.822,13.786c-4.283,6.502-5.703,13.572-3.896,19.397c0.245,0.791-0.197,1.632-0.988,1.877
					C212.221,154.452,212.071,154.474,211.925,154.474z"/>
			</g>
		</g>
		<g>
			<g>
				<path style="fill:#492E27;" d="M271.955,153.037c-0.641,0-1.233-0.412-1.433-1.056c-2.074-6.684-0.523-14.679,4.255-21.937
					c3.636-5.519,8.554-10.011,13.311-14.355c0.617-0.564,1.234-1.127,1.848-1.693c4.858-4.474,10.292-9.793,13.29-16.307
					c2.473-5.375,3.632-13.273-0.531-19.32c-0.47-0.682-0.298-1.616,0.385-2.086c0.682-0.469,1.615-0.299,2.086,0.385
					c4.08,5.926,4.381,14.461,0.785,22.275c-3.229,7.017-8.91,12.588-13.981,17.26c-0.617,0.568-1.237,1.134-1.857,1.701
					c-4.621,4.22-9.399,8.584-12.828,13.791c-4.283,6.505-5.703,13.574-3.896,19.397c0.245,0.791-0.196,1.631-0.988,1.877
					C272.252,153.016,272.101,153.037,271.955,153.037z"/>
			</g>
		</g>
	</g>
</g>
</svg>
